<svg width="2048" height="2048" viewBox="0 0 2048 2048" fill="none" xmlns="http://www.w3.org/2000/svg">
<g clip-path="url(#clip0_1_2)">
<path d="M217.373 802.198L701.199 329.585C816.964 216.504 1001.62 215.834 1118.2 328.072L1634.29 824.932C1755.8 941.913 1756.79 1136.11 1636.48 1254.32L1126.98 1754.94C1006.89 1872.93 813.176 1868.79 698.236 1745.78L207.818 1220.92C96.6562 1101.95 100.9 915.972 217.373 802.198Z" fill="#0E85F2" stroke="black"/>
<path d="M295.065 804.506L741.613 368.307C857.377 255.225 1042.03 254.555 1158.62 366.793L1635.46 825.876C1756.97 942.857 1757.96 1137.06 1637.65 1255.27L1167.38 1717.34C1047.3 1835.33 853.579 1831.19 738.639 1708.18L285.509 1223.23C174.348 1104.26 178.592 918.28 295.065 804.506Z" fill="#1E1E1E" stroke="black"/>
<g filter="url(#filter0_d_1_2)">
<circle cx="919.16" cy="1025.54" r="512" fill="white"/>
</g>
<circle cx="919.16" cy="1025.54" r="300" fill="#1E1E1E"/>
<path d="M1441.66 799.094L1268.66 647.594L1066.16 774.094L1020.66 1547.59L1441.66 799.094Z" fill="#1E1E1E"/>
<path d="M769.334 517.942L757.161 524.028L760.062 537.325L978.888 1540.27L981.892 1554.04H995.986H1210.49H1232.1L1227.6 1532.9L1011.28 515.455L1008.71 503.379L996.473 501.748L981.473 499.748L981.188 499.71L980.901 499.681L965.901 498.181L965.613 498.152L965.324 498.133L957.824 497.633L950.324 497.133L935.324 496.133L934.743 496.094H934.16H906.66H906.183L905.706 496.12L879.206 497.568L878.827 497.588L878.45 497.625L852.45 500.178L851.947 500.227L851.448 500.306L825.948 504.306L825.524 504.372L825.104 504.46L798.604 509.96L798.339 510.014L798.076 510.078L785.576 513.078L785.409 513.118L785.243 513.161L773.743 516.161L771.971 516.623L770.334 517.442L769.334 517.942Z" fill="#0E85F2" stroke="#1E1E1E" stroke-width="35" stroke-miterlimit="16"/>
<path d="M1284.83 1536.09L1798.16 525.094H1571.16L1064.66 1536.09H1284.83Z" fill="white"/>
<path d="M1284.83 1536.09L1798.16 525.094H1571.16L1064.66 1536.09H1284.83Z" fill="white"/>
<g filter="url(#filter1_d_1_2)">
<path d="M1253.83 1536.09L1767.16 525.094H1539.66L1033.16 1536.09H1253.83Z" fill="#0C8AFE"/>
<path d="M1253.83 1536.09L1767.16 525.094H1539.66L1033.16 1536.09H1253.83Z" fill="#0C8AFE"/>
</g>
</g>
<defs>
<filter id="filter0_d_1_2" x="403.16" y="513.542" width="1032" height="1032" filterUnits="userSpaceOnUse" color-interpolation-filters="sRGB">
<feFlood flood-opacity="0" result="BackgroundImageFix"/>
<feColorMatrix in="SourceAlpha" type="matrix" values="0 0 0 0 0 0 0 0 0 0 0 0 0 0 0 0 0 0 127 0" result="hardAlpha"/>
<feOffset dy="4"/>
<feGaussianBlur stdDeviation="2"/>
<feComposite in2="hardAlpha" operator="out"/>
<feColorMatrix type="matrix" values="0 0 0 0 0 0 0 0 0 0 0 0 0 0 0 0 0 0 0.25 0"/>
<feBlend mode="normal" in2="BackgroundImageFix" result="effect1_dropShadow_1_2"/>
<feBlend mode="normal" in="SourceGraphic" in2="effect1_dropShadow_1_2" result="shape"/>
</filter>
<filter id="filter1_d_1_2" x="1029.16" y="525.094" width="742" height="1019" filterUnits="userSpaceOnUse" color-interpolation-filters="sRGB">
<feFlood flood-opacity="0" result="BackgroundImageFix"/>
<feColorMatrix in="SourceAlpha" type="matrix" values="0 0 0 0 0 0 0 0 0 0 0 0 0 0 0 0 0 0 127 0" result="hardAlpha"/>
<feOffset dy="4"/>
<feGaussianBlur stdDeviation="2"/>
<feComposite in2="hardAlpha" operator="out"/>
<feColorMatrix type="matrix" values="0 0 0 0 0 0 0 0 0 0 0 0 0 0 0 0 0 0 0.25 0"/>
<feBlend mode="normal" in2="BackgroundImageFix" result="effect1_dropShadow_1_2"/>
<feBlend mode="normal" in="SourceGraphic" in2="effect1_dropShadow_1_2" result="shape"/>
</filter>
<clipPath id="clip0_1_2">
<rect width="2048" height="2048" fill="white"/>
</clipPath>
</defs>
</svg>
